<mxfile host="app.diagrams.net" modified="2024-05-09T13:11:42.447Z" agent="Mozilla/5.0 (Windows NT 10.0; Win64; x64) AppleWebKit/537.36 (KHTML, like Gecko) Chrome/121.0.0.0 Safari/537.36 OPR/107.0.0.0" etag="Yd0_D98dVSwqEWlmL9Ix" version="24.3.1" type="google">
  <diagram id="C5RBs43oDa-KdzZeNtuy" name="Page-1">
    <mxGraphModel dx="1453" dy="904" grid="1" gridSize="10" guides="1" tooltips="1" connect="1" arrows="1" fold="1" page="1" pageScale="1" pageWidth="827" pageHeight="1169" math="0" shadow="0">
      <root>
        <mxCell id="WIyWlLk6GJQsqaUBKTNV-0" />
        <mxCell id="WIyWlLk6GJQsqaUBKTNV-1" parent="WIyWlLk6GJQsqaUBKTNV-0" />
        <mxCell id="PDoKuMB8_aGi1WX2M3Jm-28" value="" style="rounded=0;whiteSpace=wrap;html=1;" parent="WIyWlLk6GJQsqaUBKTNV-1" vertex="1">
          <mxGeometry x="220" y="40" width="380" height="610" as="geometry" />
        </mxCell>
        <mxCell id="PDoKuMB8_aGi1WX2M3Jm-14" style="edgeStyle=orthogonalEdgeStyle;rounded=0;orthogonalLoop=1;jettySize=auto;html=1;endArrow=none;endFill=0;" parent="WIyWlLk6GJQsqaUBKTNV-1" source="PDoKuMB8_aGi1WX2M3Jm-0" target="PDoKuMB8_aGi1WX2M3Jm-5" edge="1">
          <mxGeometry relative="1" as="geometry" />
        </mxCell>
        <mxCell id="PDoKuMB8_aGi1WX2M3Jm-0" value="User" style="shape=umlActor;verticalLabelPosition=bottom;verticalAlign=top;html=1;outlineConnect=0;" parent="WIyWlLk6GJQsqaUBKTNV-1" vertex="1">
          <mxGeometry x="160" y="150" width="30" height="60" as="geometry" />
        </mxCell>
        <mxCell id="PDoKuMB8_aGi1WX2M3Jm-15" style="edgeStyle=orthogonalEdgeStyle;rounded=0;orthogonalLoop=1;jettySize=auto;html=1;entryX=0;entryY=0.5;entryDx=0;entryDy=0;endArrow=none;endFill=0;" parent="WIyWlLk6GJQsqaUBKTNV-1" source="PDoKuMB8_aGi1WX2M3Jm-1" target="PDoKuMB8_aGi1WX2M3Jm-6" edge="1">
          <mxGeometry relative="1" as="geometry" />
        </mxCell>
        <mxCell id="PDoKuMB8_aGi1WX2M3Jm-1" value="Guest" style="shape=umlActor;verticalLabelPosition=bottom;verticalAlign=top;html=1;outlineConnect=0;" parent="WIyWlLk6GJQsqaUBKTNV-1" vertex="1">
          <mxGeometry x="160" y="250" width="30" height="60" as="geometry" />
        </mxCell>
        <mxCell id="PDoKuMB8_aGi1WX2M3Jm-3" style="edgeStyle=orthogonalEdgeStyle;rounded=0;orthogonalLoop=1;jettySize=auto;html=1;exitX=0.5;exitY=0.5;exitDx=0;exitDy=0;exitPerimeter=0;endArrow=none;endFill=0;" parent="WIyWlLk6GJQsqaUBKTNV-1" source="PDoKuMB8_aGi1WX2M3Jm-2" target="PDoKuMB8_aGi1WX2M3Jm-0" edge="1">
          <mxGeometry relative="1" as="geometry" />
        </mxCell>
        <mxCell id="PDoKuMB8_aGi1WX2M3Jm-4" style="edgeStyle=orthogonalEdgeStyle;rounded=0;orthogonalLoop=1;jettySize=auto;html=1;exitX=0.5;exitY=0.5;exitDx=0;exitDy=0;exitPerimeter=0;endArrow=none;endFill=0;" parent="WIyWlLk6GJQsqaUBKTNV-1" source="PDoKuMB8_aGi1WX2M3Jm-2" target="PDoKuMB8_aGi1WX2M3Jm-1" edge="1">
          <mxGeometry relative="1" as="geometry" />
        </mxCell>
        <mxCell id="PDoKuMB8_aGi1WX2M3Jm-2" value="Customer" style="shape=umlActor;verticalLabelPosition=bottom;verticalAlign=top;html=1;outlineConnect=0;" parent="WIyWlLk6GJQsqaUBKTNV-1" vertex="1">
          <mxGeometry x="80" y="210" width="30" height="60" as="geometry" />
        </mxCell>
        <mxCell id="PDoKuMB8_aGi1WX2M3Jm-16" style="edgeStyle=orthogonalEdgeStyle;rounded=0;orthogonalLoop=1;jettySize=auto;html=1;entryX=0.5;entryY=0;entryDx=0;entryDy=0;endArrow=none;endFill=0;" parent="WIyWlLk6GJQsqaUBKTNV-1" source="PDoKuMB8_aGi1WX2M3Jm-5" target="PDoKuMB8_aGi1WX2M3Jm-6" edge="1">
          <mxGeometry relative="1" as="geometry" />
        </mxCell>
        <mxCell id="PDoKuMB8_aGi1WX2M3Jm-5" value="Login" style="ellipse;whiteSpace=wrap;html=1;" parent="WIyWlLk6GJQsqaUBKTNV-1" vertex="1">
          <mxGeometry x="290" y="90" width="90" height="60" as="geometry" />
        </mxCell>
        <mxCell id="PDoKuMB8_aGi1WX2M3Jm-17" style="edgeStyle=orthogonalEdgeStyle;rounded=0;orthogonalLoop=1;jettySize=auto;html=1;entryX=0.5;entryY=0;entryDx=0;entryDy=0;" parent="WIyWlLk6GJQsqaUBKTNV-1" source="PDoKuMB8_aGi1WX2M3Jm-6" target="PDoKuMB8_aGi1WX2M3Jm-7" edge="1">
          <mxGeometry relative="1" as="geometry" />
        </mxCell>
        <mxCell id="PDoKuMB8_aGi1WX2M3Jm-6" value="Browse for item" style="ellipse;whiteSpace=wrap;html=1;" parent="WIyWlLk6GJQsqaUBKTNV-1" vertex="1">
          <mxGeometry x="390" y="140" width="90" height="60" as="geometry" />
        </mxCell>
        <mxCell id="PDoKuMB8_aGi1WX2M3Jm-18" style="edgeStyle=orthogonalEdgeStyle;rounded=0;orthogonalLoop=1;jettySize=auto;html=1;entryX=0.5;entryY=0;entryDx=0;entryDy=0;" parent="WIyWlLk6GJQsqaUBKTNV-1" source="PDoKuMB8_aGi1WX2M3Jm-7" target="PDoKuMB8_aGi1WX2M3Jm-8" edge="1">
          <mxGeometry relative="1" as="geometry" />
        </mxCell>
        <mxCell id="PDoKuMB8_aGi1WX2M3Jm-7" value="Select item" style="ellipse;whiteSpace=wrap;html=1;" parent="WIyWlLk6GJQsqaUBKTNV-1" vertex="1">
          <mxGeometry x="390" y="230" width="90" height="60" as="geometry" />
        </mxCell>
        <mxCell id="PDoKuMB8_aGi1WX2M3Jm-19" style="edgeStyle=orthogonalEdgeStyle;rounded=0;orthogonalLoop=1;jettySize=auto;html=1;" parent="WIyWlLk6GJQsqaUBKTNV-1" source="PDoKuMB8_aGi1WX2M3Jm-8" target="PDoKuMB8_aGi1WX2M3Jm-9" edge="1">
          <mxGeometry relative="1" as="geometry" />
        </mxCell>
        <mxCell id="PDoKuMB8_aGi1WX2M3Jm-8" value="Add to cart" style="ellipse;whiteSpace=wrap;html=1;" parent="WIyWlLk6GJQsqaUBKTNV-1" vertex="1">
          <mxGeometry x="390" y="320" width="90" height="60" as="geometry" />
        </mxCell>
        <mxCell id="PDoKuMB8_aGi1WX2M3Jm-20" style="edgeStyle=orthogonalEdgeStyle;rounded=0;orthogonalLoop=1;jettySize=auto;html=1;" parent="WIyWlLk6GJQsqaUBKTNV-1" source="PDoKuMB8_aGi1WX2M3Jm-9" target="PDoKuMB8_aGi1WX2M3Jm-10" edge="1">
          <mxGeometry relative="1" as="geometry" />
        </mxCell>
        <mxCell id="PDoKuMB8_aGi1WX2M3Jm-9" value="Checkout" style="ellipse;whiteSpace=wrap;html=1;" parent="WIyWlLk6GJQsqaUBKTNV-1" vertex="1">
          <mxGeometry x="390" y="400" width="90" height="60" as="geometry" />
        </mxCell>
        <mxCell id="PDoKuMB8_aGi1WX2M3Jm-21" style="edgeStyle=orthogonalEdgeStyle;rounded=0;orthogonalLoop=1;jettySize=auto;html=1;" parent="WIyWlLk6GJQsqaUBKTNV-1" source="PDoKuMB8_aGi1WX2M3Jm-10" target="PDoKuMB8_aGi1WX2M3Jm-11" edge="1">
          <mxGeometry relative="1" as="geometry" />
        </mxCell>
        <mxCell id="PDoKuMB8_aGi1WX2M3Jm-10" value="Make payment" style="ellipse;whiteSpace=wrap;html=1;" parent="WIyWlLk6GJQsqaUBKTNV-1" vertex="1">
          <mxGeometry x="390" y="480" width="90" height="60" as="geometry" />
        </mxCell>
        <mxCell id="PDoKuMB8_aGi1WX2M3Jm-11" value="Confirm order" style="ellipse;whiteSpace=wrap;html=1;" parent="WIyWlLk6GJQsqaUBKTNV-1" vertex="1">
          <mxGeometry x="390" y="560" width="90" height="60" as="geometry" />
        </mxCell>
        <mxCell id="PDoKuMB8_aGi1WX2M3Jm-23" style="edgeStyle=orthogonalEdgeStyle;rounded=0;orthogonalLoop=1;jettySize=auto;html=1;endArrow=none;endFill=0;" parent="WIyWlLk6GJQsqaUBKTNV-1" source="PDoKuMB8_aGi1WX2M3Jm-22" target="PDoKuMB8_aGi1WX2M3Jm-10" edge="1">
          <mxGeometry relative="1" as="geometry" />
        </mxCell>
        <mxCell id="PDoKuMB8_aGi1WX2M3Jm-22" value="Bank" style="shape=umlActor;verticalLabelPosition=bottom;verticalAlign=top;html=1;outlineConnect=0;" parent="WIyWlLk6GJQsqaUBKTNV-1" vertex="1">
          <mxGeometry x="650" y="480" width="30" height="60" as="geometry" />
        </mxCell>
        <mxCell id="PDoKuMB8_aGi1WX2M3Jm-27" style="edgeStyle=orthogonalEdgeStyle;rounded=0;orthogonalLoop=1;jettySize=auto;html=1;entryX=1;entryY=0.5;entryDx=0;entryDy=0;endArrow=none;endFill=0;" parent="WIyWlLk6GJQsqaUBKTNV-1" source="PDoKuMB8_aGi1WX2M3Jm-24" target="PDoKuMB8_aGi1WX2M3Jm-9" edge="1">
          <mxGeometry relative="1" as="geometry" />
        </mxCell>
        <mxCell id="PDoKuMB8_aGi1WX2M3Jm-24" value="Retailer" style="shape=umlActor;verticalLabelPosition=bottom;verticalAlign=top;html=1;outlineConnect=0;" parent="WIyWlLk6GJQsqaUBKTNV-1" vertex="1">
          <mxGeometry x="650" y="330" width="30" height="60" as="geometry" />
        </mxCell>
        <mxCell id="PDoKuMB8_aGi1WX2M3Jm-29" value="&lt;font style=&quot;font-size: 18px;&quot;&gt;Eshop system&lt;/font&gt;" style="text;html=1;align=center;verticalAlign=middle;whiteSpace=wrap;rounded=0;" parent="WIyWlLk6GJQsqaUBKTNV-1" vertex="1">
          <mxGeometry x="360" width="140" height="30" as="geometry" />
        </mxCell>
      </root>
    </mxGraphModel>
  </diagram>
</mxfile>
